<svg width="20" height="20" viewBox="0 0 20 20" fill="none" xmlns="http://www.w3.org/2000/svg">
<g clip-path="url(#clip0_2_5573)">
<path d="M12.5 13.3333H15C15.4583 13.3333 15.8333 12.9583 15.8333 12.4999V7.49992C15.8333 7.04159 15.4583 6.66659 15 6.66659H12.5C12.0416 6.66659 11.6666 7.04159 11.6666 7.49992V12.4999C11.6666 12.9583 12.0416 13.3333 12.5 13.3333ZM13.3333 8.33325H14.1666V11.6666H13.3333V8.33325ZM7.49996 13.3333H9.99996C10.4583 13.3333 10.8333 12.9583 10.8333 12.4999V7.49992C10.8333 7.04159 10.4583 6.66659 9.99996 6.66659H7.49996C7.04163 6.66659 6.66663 7.04159 6.66663 7.49992V12.4999C6.66663 12.9583 7.04163 13.3333 7.49996 13.3333ZM8.33329 8.33325H9.16663V11.6666H8.33329V8.33325ZM4.16663 6.66659H5.83329V13.3333H4.16663V6.66659ZM1.66663 3.33325V16.6666H18.3333V3.33325H1.66663ZM16.6666 14.9999H3.33329V4.99992H16.6666V14.9999Z" fill="#BDBDBD"/>
</g>
<defs>
<clipPath id="clip0_2_5573">
<rect width="20" height="20" fill="white"/>
</clipPath>
</defs>
</svg>
